<svg id="layer1" xmlns="http://www.w3.org/2000/svg" viewBox="0 0 50 50"><defs><style>.cls-1{fill:#fff;}</style></defs><title>icon-fiver</title><path class="cls-1" d="M50,36.5c-7.7,1.41-8.36,2.17-8.71,10-1.41-7.7-2.17-8.36-10-8.71,7.7-1.41,8.36-2.17,8.71-10C41.42,35.5,42.18,36.16,50,36.5ZM7.51.18h0L5.69,5.64,0,5.67H0L4.6,9l-1.78,5.5h0l4.69-3.37,4.69,3.37h0L10.42,9,15,5.67h0l-5.69,0ZM37.73,33.69a5.22,5.22,0,0,0,.49-1.47,12.19,12.19,0,0,1-3.51-2.42,12.38,12.38,0,0,1-3.16-5.46,6.05,6.05,0,0,0,1.28,7.34A6.61,6.61,0,0,0,37.73,33.69Zm.72-3.3c.06-.77.11-1.64.15-2.66a1.4,1.4,0,0,1,1.3-1.34H40a1.4,1.4,0,0,1,1.38,1.15c.23,1.27.43,2.32.64,3.19a6.24,6.24,0,0,0-1.66-6.57A6.06,6.06,0,0,0,33,22.88a10.56,10.56,0,0,0,5.44,7.51Zm2.68,17.47a1.39,1.39,0,0,1-1.23-1.12l-.06-.34c-1.65-1.68-4.56-4-8.12-4-2.66,0-4.55,1.66-6.23,3.12-1.85,1.62-3.45,3-5.82,2.29-.47-.34-.48-.62-.49-.72,0-.64.74-1.5,1.12-1.81a.77.77,0,0,0,.11-.14,1.77,1.77,0,0,0,1.84-.41L30,38.38a1.4,1.4,0,0,1,1-2l1.8-.34,1.51-1.24a8.69,8.69,0,0,1-4.65-4.65l-10,12.08a1.75,1.75,0,0,0-.45,1.62l-.11.06c-.19.16-1.85,1.57-1.77,3.27a2.75,2.75,0,0,0,1.37,2.18l.21.1a6.1,6.1,0,0,0,1.94.33c2.36,0,4.13-1.54,5.72-2.93s3.07-2.68,5.06-2.68c4.58,0,8.13,4.91,8.16,5a.89.89,0,0,0,1.45-1ZM22.7,23c1.67-1.56,2.47-4.77,2.38-7.86H13.43a1.38,1.38,0,0,1-.41.5,1.4,1.4,0,0,1-1.64,0l-.71-.51H9.49c-.09,3.09.71,6.3,2.38,7.86A8.5,8.5,0,0,0,22.7,23ZM18.1,42.27a3.05,3.05,0,0,1,.61-1l1.53-1.85h-2V28.38a10.79,10.79,0,0,0,6.76-3c4.31-4,4.65-14.16.58-18.53l-.29-.13h-9c-.1,0-.23.2-.41.34L13.51,8.63H24.22c2.93,3.74,2.6,12.13-.73,15.26a9.37,9.37,0,0,1-12.42,0C8.87,21.8,8,17.41,8.47,13.6l-1-.7-1.35,1C5.74,18.22,7,23,9.58,25.43a10.77,10.77,0,0,0,6.76,3V39.47H10.42c-.63,0-1.14.79-1.14,1.4s.51,1.4,1.14,1.4H18.1Z"/></svg>