<svg id="layer1" xmlns="http://www.w3.org/2000/svg" viewBox="0 0 50 50"><defs><style>.cls-1{fill:#fff;}</style></defs><title>icon-capture</title><path class="cls-1" d="M28.44,22c0,1.27,1,1.23,1.25,1.2a4.5,4.5,0,0,0,2.23-.85,32.26,32.26,0,0,1-.51-4.08C29.65,19.18,28.44,20.54,28.44,22Z"/><path class="cls-1" d="M48.55,17a14.12,14.12,0,0,0-27.74-3.77H3a1.55,1.55,0,0,0-1.56,1.55V44.62A1.55,1.55,0,0,0,3,46.17H37.43c1.17,0,1.58-1.57,1.58-1.57L39,30.34A14.13,14.13,0,0,0,48.55,17ZM35.22,36.73H27l-5.47-8.44L19.4,31.62l3.31,5.11h-2L18.4,33.17,13.76,26l-7,10.75H5.08v-20H20.3c0,.06,0,.13,0,.19A14.13,14.13,0,0,0,34.42,31.09c.27,0,.53,0,.79,0Zm.56-9.3a10.32,10.32,0,0,0-1.16-2.25c4-.45,6.65-1.78,6.65-4.37a3.35,3.35,0,0,0-2.66-3.26,16.58,16.58,0,0,1-4.22,5.8,4.85,4.85,0,0,0,.31.76l-2.3,1.47a5.63,5.63,0,0,1-.31-.74,7.42,7.42,0,0,1-3.59,1,3.06,3.06,0,0,1-3.26-3.32c0-3.08,2.37-5.51,5.53-6.8,0-1,0-1.94,0-3-1.67,0-3.48.09-4.37.07l-.13-2.61c1,0,2.9,0,4.55,0,0-1,.07-2.08.11-3l3.5.27c0,.22-.22.4-.6.45-.07.65-.11,1.49-.18,2.21a51.65,51.65,0,0,0,8-.94l.25,2.7a62.34,62.34,0,0,1-8.34.76c0,.78,0,1.54,0,2.28a12.65,12.65,0,0,1,3.35-.29,5.27,5.27,0,0,0,.18-1l2.74.69c-.07.25-.13.49-.18.74,3.24.89,4.66,3.15,4.66,5.64C44.19,24.31,41.51,26.72,35.78,27.44Z"/><path class="cls-1" d="M34,17.42a28.07,28.07,0,0,0,.29,3,11.74,11.74,0,0,0,2.19-3.35A8.9,8.9,0,0,0,34,17.42Z"/></svg>