<svg id="layer1" xmlns="http://www.w3.org/2000/svg" viewBox="0 0 50 50"><defs><style>.cls-1{fill:#fff;}</style></defs><title>icon-setting</title><path class="cls-1" d="M49.5,26.12V23.88l-4.83-.81a19.63,19.63,0,0,0-.55-3l4.29-2.44-.76-2.11-4.86.91a19.74,19.74,0,0,0-1.52-2.63L44.48,10,43.05,8.28l-4.29,2.55a19.85,19.85,0,0,0-2.3-1.91l1.76-4.72L36.29,3.07,33.09,7A19.61,19.61,0,0,0,30.3,6l0-5.08L28.16.5,26.47,5.31c-.49,0-1-.07-1.47-.07s-1,0-1.47.07L21.84.5,19.65.89,19.7,6a19.61,19.61,0,0,0-2.79,1l-3.2-3.91L11.79,4.19l1.76,4.72a19.85,19.85,0,0,0-2.3,1.91L6.95,8.28,5.52,10l3.22,3.79a19.71,19.71,0,0,0-1.52,2.63L2.36,15.5,1.6,17.61l4.29,2.44a19.63,19.63,0,0,0-.55,3L.5,23.88v2.24l4.83.81a19.63,19.63,0,0,0,.55,3L1.6,32.39l.76,2.11,4.86-.91a19.76,19.76,0,0,0,1.52,2.63L5.52,40l1.43,1.72,4.29-2.55a19.85,19.85,0,0,0,2.3,1.91l-1.76,4.72,1.93,1.12L16.91,43a19.61,19.61,0,0,0,2.79,1l0,5.08,2.19.39,1.69-4.81c.49,0,1,.07,1.47.07s1,0,1.47-.07l1.69,4.81,2.19-.39,0-5.08a19.61,19.61,0,0,0,2.79-1l3.2,3.91,1.93-1.12-1.76-4.72a19.85,19.85,0,0,0,2.3-1.91l4.29,2.55L44.48,40l-3.22-3.79a19.74,19.74,0,0,0,1.52-2.63l4.86.91.76-2.11-4.29-2.44a19.63,19.63,0,0,0,.55-3ZM39.5,25A14.5,14.5,0,1,1,25,10.5,14.5,14.5,0,0,1,39.5,25Z"/></svg>