<svg id="layer1" xmlns="http://www.w3.org/2000/svg" viewBox="0 0 250 250"><defs><style>.cls-1{fill:#f89a00;}.cls-2{fill:#f2f2f2;}</style></defs><title>icon-input-capture</title><path class="cls-1" d="M125,0A125,125,0,1,0,250,125,125,125,0,0,0,125,0Z"/><path class="cls-2" d="M197,67l.52,116S196,189,191.46,189L59,189a6,6,0,0,1-6-6V67a6,6,0,0,1,6-6H191A6,6,0,0,1,197,67Zm-14.11,85.43V74.86h-116v77.53h6.62l26.77-41.74,17.88,27.89,8.89,13.85h7.7l-12.74-19.86,8.3-12.94,21,32.8h31.53Zm-35.06-51.52A12.43,12.43,0,1,0,160.3,88.45,12.43,12.43,0,0,0,147.87,100.87Z"/></svg>